<svg width="36" height="45" viewBox="0 0 36 45" fill="none" xmlns="http://www.w3.org/2000/svg">
<path d="M0.992546 18.6718C0.444462 18.6718 0 19.1162 0 19.6643V29.5898C0 30.1378 0.444462 30.5823 0.992546 30.5823H10.918C11.4661 30.5823 11.9105 30.1378 11.9105 29.5898V19.6643C11.9105 19.1162 11.4661 18.6718 10.918 18.6718H0.992546ZM1.98509 20.6568H9.92546V28.5972H1.98509V20.6568ZM0.992546 32.56C0.444462 32.56 0 33.0045 0 33.5526V43.478C0 44.0261 0.444462 44.4706 0.992546 44.4706H10.918C11.4661 44.4706 11.9105 44.0261 11.9105 43.478V33.5526C11.9105 33.0045 11.4661 32.56 10.918 32.56H0.992546ZM1.98509 34.5451H9.92546V42.4855H1.98509V34.5451Z" fill="#44991D"/>
<path d="M13.6654 0.453966C13.843 0.17903 14.1448 0.00930518 14.4721 0.000372272C14.6821 -0.00538449 14.8884 0.0557563 15.0617 0.174663C15.5135 0.48533 15.6278 1.10329 15.3172 1.5551L7.3768 13.4656C7.28092 13.6094 7.14931 13.7255 6.99487 13.8027C6.50435 14.0479 5.90823 13.849 5.66307 13.3586L3.67798 9.38846C3.67421 9.38132 3.67083 9.37417 3.66726 9.36702C3.42805 8.87373 3.63411 8.27999 4.1274 8.04078C4.6207 7.80158 5.21444 8.00763 5.45364 8.50093L6.67368 10.9412L9.46531 6.75385H1.98509V14.6942H9.92546V10.8334L11.9105 7.85577V15.6868C11.9105 16.2348 11.4661 16.6793 10.918 16.6793H0.992546C0.444462 16.6793 0 16.2348 0 15.6868V5.76131C0 5.21322 0.444462 4.76876 0.992546 4.76876H10.789L13.6654 0.453966Z" fill="#5DCF27"/>
<path d="M15.5294 12.9925C15.5294 12.4445 15.9739 12 16.522 12H34.3878C34.9359 12 35.3803 12.4445 35.3803 12.9925V14.9776C35.3803 15.5257 34.9359 15.9702 34.3878 15.9702H16.522C15.9739 15.9702 15.5294 15.5257 15.5294 14.9776V12.9925Z" fill="white"/>
<path d="M15.5294 26.8878C15.5294 26.3397 15.9739 25.8952 16.522 25.8952H34.3878C34.9359 25.8952 35.3803 26.3397 35.3803 26.8878V28.8729C35.3803 29.421 34.9359 29.8654 34.3878 29.8654H16.522C15.9739 29.8654 15.5294 29.421 15.5294 28.8729V26.8878Z" fill="white"/>
<path d="M15.5294 40.7904C15.5294 40.2423 15.9739 39.7978 16.522 39.7978H34.3878C34.9359 39.7978 35.3803 40.2423 35.3803 40.7904V42.7755C35.3803 43.3235 34.9359 43.768 34.3878 43.768H16.522C15.9739 43.768 15.5294 43.3235 15.5294 42.7755V40.7904Z" fill="white"/>
</svg>
