<svg width="45" height="45" viewBox="0 0 45 45" fill="none" xmlns="http://www.w3.org/2000/svg">
<path d="M22.2353 44.4706C34.5155 44.4706 44.4706 34.5155 44.4706 22.2353C44.4706 9.95508 34.5155 0 22.2353 0C9.95508 0 0 9.95508 0 22.2353C0 34.5155 9.95508 44.4706 22.2353 44.4706Z" fill="#44991D"/>
<path d="M22.2353 16.0588C24.282 16.0588 25.9411 14.3997 25.9411 12.353C25.9411 10.3063 24.282 8.64709 22.2353 8.64709C20.1886 8.64709 18.5294 10.3063 18.5294 12.353C18.5294 14.3997 20.1886 16.0588 22.2353 16.0588Z" fill="white"/>
<path d="M18.5295 23.4705V33.3529C18.5295 34.7179 19.6351 35.8235 21.0001 35.8235H25.9412V21C25.9412 19.6351 24.8355 18.5294 23.4706 18.5294H18.5295H16.0588V21C16.0588 22.365 17.1645 23.4705 18.5295 23.4705Z" fill="white"/>
</svg>
