<svg width="42" height="45" viewBox="0 0 42 45" fill="none" xmlns="http://www.w3.org/2000/svg">
<path d="M10.6165 25.6699C10.6165 23.3558 11.3802 21.219 12.665 19.4917C11.3195 18.2823 9.54651 17.5404 7.59568 17.5404C3.40084 17.5404 0 20.9417 0 25.1361C0 25.1361 1.78706 41.0956 7.59568 41.0956C9.84059 41.0956 11.4829 38.7096 12.6555 35.7847C11.287 31.2817 10.7337 26.7869 10.6251 25.8197L10.6165 25.6699Z" fill="#44991D"/>
<path d="M7.59552 16.9902C10.1368 16.9902 12.3473 15.5764 13.486 13.4935C12.3491 11.9494 11.6736 10.0465 11.6736 7.98616C11.6736 7.05146 11.8152 6.14934 12.0727 5.29743C10.8851 4.23062 9.31833 3.57462 7.59552 3.57462C3.8911 3.57462 0.887939 6.57823 0.887939 10.2826C0.887939 13.9866 3.8911 16.9902 7.59552 16.9902Z" fill="#44991D"/>
<path d="M34.4043 17.5404C32.4535 17.5404 30.6809 18.2823 29.335 19.4917C30.6207 21.219 31.3835 23.3558 31.3835 25.6699L31.3749 25.8192C31.2663 26.7874 30.713 31.2813 29.3445 35.7842C30.5171 38.7091 32.1594 41.0952 34.4043 41.0952C40.2129 41.0952 42 25.1356 42 25.1356C42 20.9417 38.5992 17.5404 34.4043 17.5404Z" fill="#44991D"/>
<path d="M28.5142 13.493C29.6529 15.576 31.8625 16.9898 34.4047 16.9898C38.1091 16.9898 41.1122 13.9862 41.1122 10.2822C41.1122 6.57777 38.1086 3.57416 34.4047 3.57416C32.6814 3.57416 31.1151 4.22971 29.9275 5.29697C30.1845 6.14933 30.327 7.05101 30.327 7.9857C30.3261 10.046 29.6506 11.9489 28.5142 13.493Z" fill="#44991D"/>
<path d="M21 16.6269C16.0057 16.6269 11.957 20.6756 11.957 25.6699C11.957 25.6699 14.0852 44.6702 21 44.6702C27.9148 44.6702 30.0425 25.6699 30.0425 25.6699C30.0425 20.6756 25.9943 16.6269 21 16.6269Z" fill="#44991D"/>
<path d="M21.0001 15.9714C25.4104 15.9714 28.9857 12.3961 28.9857 7.9857C28.9857 3.57533 25.4104 3.05176e-05 21.0001 3.05176e-05C16.5897 3.05176e-05 13.0144 3.57533 13.0144 7.9857C13.0144 12.3961 16.5897 15.9714 21.0001 15.9714Z" fill="#44991D"/>
</svg>
