<svg width="43" height="43" viewBox="0 0 43 43" fill="none" xmlns="http://www.w3.org/2000/svg">
<g clip-path="url(#clip0_6_347)">
<path d="M2.89001 39.8923C3.30456 40.8451 4.10285 41.6179 5.10947 42.0408C6.11609 42.4637 7.2487 42.5021 8.25843 42.1476C8.83306 41.9414 9.34721 41.6173 9.76377 41.1987C10.1803 40.78 10.4889 40.2774 10.6673 39.7269L10.7428 39.4622C11.8613 34.3582 14.7787 29.8 19.0376 26.5025C20.1281 25.7264 21.3335 25.0982 22.6196 24.6358L24.2037 28.2935C24.4923 28.9434 24.9674 29.5111 25.5755 29.9326C26.1836 30.3541 26.9005 30.6127 27.6453 30.6792C28.4079 30.7625 29.1735 30.6467 29.856 30.3446C30.5385 30.0426 31.1108 29.5664 31.5088 28.9695L42.0957 12.8549C42.4206 12.3544 42.614 11.7866 42.6606 11.1961C42.7072 10.6057 42.6057 10.0088 42.3641 9.45234C42.1225 8.89589 41.7474 8.39509 41.2683 7.98936C40.7893 7.58363 40.2193 7.28403 39.6033 7.11414L19.7273 1.62752C18.8499 1.42132 17.9342 1.47357 17.108 1.777C16.516 1.99283 15.9887 2.33276 15.5659 2.77116C15.074 3.27716 14.7456 3.90427 14.6168 4.58371C14.488 5.26315 14.5637 5.96867 14.8356 6.62287L16.4196 10.2806C8.21253 13.155 -1.29982 29.2965 2.89001 39.8923Z" fill="white"/>
<path d="M1.50726 38.5326C1.92181 39.4854 2.7201 40.2582 3.72672 40.6811C4.73334 41.104 5.86595 41.1424 6.87567 40.7879C7.45031 40.5817 7.96446 40.2575 8.38102 39.8389C8.79759 39.4203 9.10617 38.9177 9.28451 38.3672L9.36007 38.1025C10.4785 32.9985 13.396 28.4403 17.6549 25.1428C18.7454 24.3667 19.9508 23.7385 21.2369 23.2761L22.8209 26.9337C23.1095 27.5836 23.5847 28.1514 24.1927 28.5729C24.8008 28.9944 25.5177 29.253 26.2625 29.3195C27.0252 29.4028 27.7908 29.2869 28.4732 28.9849C29.1557 28.6829 29.7281 28.2067 30.1261 27.6098L40.7129 11.4952C41.0379 10.9947 41.2313 10.4269 41.2778 9.83643C41.3244 9.24601 41.2229 8.64908 40.9813 8.09263C40.7397 7.53618 40.3647 7.03538 39.8856 6.62965C39.4065 6.22391 38.8365 5.92432 38.2205 5.75443L18.3446 0.267812C17.4671 0.0616066 16.5514 0.113862 15.7252 0.417287C15.1332 0.63312 14.6059 0.973048 14.1831 1.41145C13.6912 1.91745 13.3629 2.54456 13.234 3.224C13.1052 3.90344 13.1809 4.60896 13.4528 5.26316L15.0369 8.92085C6.82978 11.7953 -2.68257 27.9368 1.50726 38.5326Z" fill="#44991D"/>
</g>
<defs>
<clipPath id="clip0_6_347">
<rect width="43" height="43" fill="white"/>
</clipPath>
</defs>
</svg>
